<svg xmlns="http://www.w3.org/2000/svg" width="133.063" height="41.969" viewBox="0 0 133.063 41.969"><path d="M62.469,24.238l-3.652-2.645L66.859,10.5l7.879,11.094-3.652,2.645-4.223-6.062Zm0,0" fill="#1b75bc"/><path d="M80.84,28.137a6.522,6.522,0,0,0-8.945,0,6.021,6.021,0,0,0,0,8.68,6.452,6.452,0,0,0,8.945,0,6.021,6.021,0,0,0,0-8.68Zm-2.992,5.836a2.026,2.026,0,0,1-1.48.609,2.1,2.1,0,0,1-1.508-.609,2.053,2.053,0,0,1,0-2.965,2.1,2.1,0,0,1,2.988,2.965Zm0,0" fill="#1b75bc"/><path d="M73.883,19.465v-4.43h4V10.563h4.809V24.379H77.879V19.465Zm0,0" fill="#1b75bc"/><path d="M91.5,16.547V4.77h13.449V9.145h-8.7v3.027h8.7v4.375h-4.269v3.4h7.691v4.43H88.3v-4.43h7.637v-3.4Zm0,0" fill="#1b75bc"/><path d="M102.781,28.137a6.529,6.529,0,0,0-8.945,0,6.021,6.021,0,0,0,0,8.68,6.46,6.46,0,0,0,8.945,0,6.02,6.02,0,0,0,0-8.68Zm-2.988,5.836a2.035,2.035,0,0,1-1.484.609,2.1,2.1,0,0,1-1.508-.609,2.053,2.053,0,0,1,0-2.965,2.106,2.106,0,0,1,2.992,2.965Zm0,0" fill="#1b75bc"/><path d="M129.746,19.949V10.563H116.082v4.484h8.91v4.9H112.984v4.43h7.688v9.133h4.754V24.379h7.637v-4.43Zm0,0" fill="#1b75bc"/><path d="M20.816,17.465,17.727,4.879,8.32,4.586l1.656,7.437,6.762,3.395Zm0,0" fill="#b61d4c"/><path d="M24.285,20.637l3.926,3.594.262-9.711L17.727,4.879l3.09,12.586Zm0,0" fill="#524fa1"/><path d="M33.738,12.676,25.4,0,17.727,4.879l10.746,9.641Zm0,0" fill="#1b75bc"/><path d="M38.867,20.469,53.3,9.586,40.9,9.078,25.4,0l8.34,12.68Zm0,0" fill="#00a251"/><path d="M33.738,12.676,25.4,0Zm0,0" fill="#039e53"/><path d="M38.867,20.469l11.9-1.152L53.3,9.586Zm0,0" fill="#72bf44"/><path d="M28.473,14.519l-.262,9.711,10.656-3.762-5.129-7.793Zm0,0" fill="#00bfe0"/><path d="M33.738,12.676l5.129,7.793Zm0,0" fill="#14c0e0"/><path d="M32.34,30.352,47,33.824,50.77,19.316l-11.9,1.152Zm0,0" fill="#a6ce39"/><path d="M24.953,27.523l7.387,2.828,6.527-9.883L28.211,24.23Zm0,0" fill="#e2e42c"/><path d="M34.414,39.3l10.535,2.387L47,33.824,32.34,30.352Zm0,0" fill="#e1d91e"/><path d="M24.953,27.523l-7.676,7.766L34.414,39.3,32.34,30.355Zm0,0" fill="#f9ec00"/><path d="M9.977,12.023l-3.16,7.2,9.922-3.8Zm0,0" fill="#ed1847"/><path d="M16.738,15.418,9.977,12.023Zm0,0" fill="#ea2548"/><path d="M16.738,15.418l-4.82,1.848L16.9,23l7.383-2.363-3.465-3.176Zm0,0" fill="#a880b9"/><path d="M16.738,15.418l4.078,2.047Zm0,0" fill="#aa83bb"/><path d="M20.816,17.465l3.469,3.172Zm0,0" fill="#aa83bb"/><path d="M28.211,24.23l-3.926-3.594L16.9,23l1.883,3.547-1.5,8.738,7.676-7.766Zm0,0" fill="#2f9fb5"/><path d="M24.285,20.637l3.926,3.594Zm0,0" fill="#2b9fb2"/><path d="M24.953,27.523l3.258-3.293Zm0,0" fill="#2b9fb2"/><path d="M24.953,27.523l-7.676,7.766Zm0,0" fill="#2b9fb2"/><path d="M18.781,26.551,16.9,23l-4.98-5.738-5.1,1.957,6.742,9.719Zm0,0" fill="#f15a22"/><path d="M13.559,28.945,6.816,19.223l-3.5,7.965,2.535,5.285Zm0,0" fill="#f58220"/><path d="M13.559,28.945,5.852,32.473l11.426,2.816,1.5-8.738Zm0,0" fill="#f8af19"/><path d="M13.559,28.945l5.223-2.394Zm0,0" fill="#f8af19"/><path d="M5.852,32.473l7.707-3.527Zm0,0" fill="#f8af19"/><path d="M3.316,27.188,0,34.746l8.512,7.223,8.766-6.68L5.855,32.473Zm0,0" fill="#ffde17"/></svg>