<svg xmlns="http://www.w3.org/2000/svg" viewBox="0 0 30.48 20.9"><defs><style>.cls-1{fill:#fff;}.cls-2,.cls-6,.cls-8{fill:none;}.cls-2,.cls-4,.cls-5,.cls-6,.cls-8{stroke:#333;}.cls-2,.cls-4,.cls-5,.cls-6{stroke-linecap:round;stroke-linejoin:round;}.cls-2{stroke-width:1.2px;}.cls-3{fill:#3797ff;}.cls-4{fill:#0a9e0a;}.cls-4,.cls-5,.cls-6,.cls-8{stroke-width:0.8px;}.cls-5{fill:#73c121;}.cls-7{fill:#379721;}.cls-8{stroke-miterlimit:10;}</style></defs><g id="레이어_2" data-name="레이어 2"><g id="레이어_1-2" data-name="레이어 1"><polygon class="cls-1" points="23.65 19.71 1.01 19.71 1.9 4.12 24.53 4.12 23.65 19.71"/><polygon class="cls-1" points="3.02 0.95 1.76 3.98 10.47 4.12 9.42 0.6 3.02 0.95"/><polyline class="cls-2" points="10.47 4.12 9.42 0.6 2.76 0.6 1.43 4.12 24.74 4.12 24.74 7.36"/><polygon class="cls-3" points="7.98 9.01 3.13 20.05 24.26 20.3 29.88 7.93 9.43 7.42 7.98 9.01"/><polygon class="cls-1" points="7.09 7.36 10.08 7.43 3.76 20.3 1.01 20.3 7.09 7.36"/><polyline class="cls-2" points="1.43 20.3 24.26 20.3 29.88 7.93 6.85 7.36 1.43 19.44"/><line class="cls-2" x1="1.43" y1="4.12" x2="0.6" y2="20.3"/><polyline class="cls-4" points="17.74 15.31 19.94 13.47 24.71 18.8 21.5 18.8"/><polygon class="cls-5" points="14.12 12.45 6.59 18.8 21.5 18.8 14.12 12.45"/><path class="cls-6" d="M16.63,14.61s-1.92.28-1.68,1.55.83,1.13.54,1.52a12.33,12.33,0,0,1-1.08,1.12"/><path class="cls-7" d="M9.94,16.3c0-.8-.7-6.4-1.22-6.4C7.91,9.9,7,15.5,7,16.3a1.47,1.47,0,0,0,2.93,0Z"/><path class="cls-8" d="M10.12,16.3c0-.8-.79-6.57-1.76-6.57S6.59,15.5,6.59,16.3a1.63,1.63,0,0,0,1.77,1.44A1.63,1.63,0,0,0,10.12,16.3Z"/><line class="cls-6" x1="8.36" y1="18.8" x2="8.36" y2="15.42"/><line class="cls-8" x1="6.78" y1="18.8" x2="9.94" y2="18.8"/></g></g></svg>