<svg xmlns="http://www.w3.org/2000/svg" viewBox="0 0 47.55 77.77"><defs><style>.cls-1,.cls-2{fill:#fff;stroke-width:4px;}.cls-1,.cls-2,.cls-4{stroke:#221e1f;}.cls-1{stroke-linecap:round;stroke-linejoin:round;}.cls-2,.cls-4{stroke-miterlimit:10;}.cls-3{fill:#221e1f;}.cls-4{fill:none;stroke-width:3px;}</style></defs><g id="레이어_2" data-name="레이어 2"><g id="Layer_1" data-name="Layer 1"><rect class="cls-1" x="2" y="18.52" width="43.55" height="57.25"/><rect class="cls-2" x="8.38" y="2" width="30.78" height="16.52"/><rect class="cls-3" x="16.01" y="8.41" width="3.73" height="4.58"/><rect class="cls-3" x="28.54" y="8.41" width="3.73" height="4.58"/><circle class="cls-3" cx="24.07" cy="61.68" r="3.42"/><line class="cls-3" x1="24.07" y1="59.81" x2="24.07" y2="29.22"/><line class="cls-4" x1="24.07" y1="59.81" x2="24.07" y2="33.52"/><polygon class="cls-3" points="27.06 34.4 24.07 29.22 21.08 34.4 27.06 34.4"/><path class="cls-4" d="M25.09,51.74s3,.47,4.22,0,4.13-1.78,4.13-6.57v-7"/><rect class="cls-3" x="31.06" y="35.88" width="4.75" height="4.75"/><path class="cls-4" d="M23.77,55.59h-4c-2.16,0-5.26-2.25-5.26-4.79V43.89"/><path class="cls-3" d="M17.19,44a2.71,2.71,0,1,0-2.71,2.71A2.71,2.71,0,0,0,17.19,44Z"/></g></g></svg>