<svg xmlns="http://www.w3.org/2000/svg" viewBox="0 0 47.55 77.77"><defs><style>.cls-1{fill:#1fa895;stroke-linecap:round;stroke-linejoin:round;}.cls-1,.cls-2{stroke:#221e1f;stroke-width:4px;}.cls-2{fill:#fff;stroke-miterlimit:10;}.cls-3{fill:#221e1f;}</style></defs><g id="레이어_2" data-name="레이어 2"><g id="Layer_1" data-name="Layer 1"><rect class="cls-1" x="2" y="18.52" width="43.55" height="57.25"/><rect class="cls-2" x="8.38" y="2" width="30.78" height="16.52"/><rect class="cls-3" x="16.01" y="8.41" width="3.73" height="4.58"/><rect class="cls-3" x="28.54" y="8.41" width="3.73" height="4.58"/><circle class="cls-3" cx="24.07" cy="61.68" r="3.42"/><line class="cls-3" x1="24.07" y1="59.81" x2="24.07" y2="29.22"/><rect class="cls-3" x="22.57" y="33.52" width="3" height="26.29"/><polygon class="cls-3" points="27.06 34.4 24.07 29.22 21.08 34.4 27.06 34.4"/><path class="cls-3" d="M27.61,53.45a18,18,0,0,1-2.75-.23l.46-3a10.73,10.73,0,0,0,3.45.08c1.36-.52,3.17-1.63,3.17-5.17v-7h3v7c0,2.75-.88,6.35-5.09,8A6.46,6.46,0,0,1,27.61,53.45Z"/><rect class="cls-3" x="31.06" y="35.88" width="4.75" height="4.75"/><path class="cls-3" d="M21.62,57.09H19.74c-3,0-6.76-2.91-6.76-6.29V43.89h3V50.8c0,1.66,2.38,3.29,3.76,3.29h4v3Z"/><path class="cls-3" d="M17.19,44a2.71,2.71,0,1,0-2.71,2.71A2.71,2.71,0,0,0,17.19,44Z"/></g></g></svg>