<svg xmlns="http://www.w3.org/2000/svg" xmlns:xlink="http://www.w3.org/1999/xlink" viewBox="0 0 109.95 16.41"><defs><style>.cls-1{fill:#fff;}.cls-2{mask:url(#mask);}.cls-3{fill:url(#무제_그라디언트_18);}.cls-4{fill:url(#무제_그라디언트_32);}.cls-5{fill:url(#무제_그라디언트_17);}</style><mask id="mask" x="2.27" y="4.54" width="22.77" height="11.73" maskUnits="userSpaceOnUse"><path class="cls-1" d="M10.65,14.88c-.23-.28-.44-.8-.65-.77s-.13.59-.28,1.11a2.69,2.69,0,0,1-.18.49h0l.18-.06,1.29-.4A1.83,1.83,0,0,1,10.65,14.88Z"/><path class="cls-1" d="M17.17,13.67c-.23,0-.46.55-.59.75a3.4,3.4,0,0,1-.46.58c.53.1,1.07.22,1.61.35a6,6,0,0,1-.2-.65C17.38,14.11,17.43,13.69,17.17,13.67Z"/><path class="cls-1" d="M20.83,16.11h0Z"/><path class="cls-1" d="M24.29,11.18c-.92-1-1.83-.6-2.5-1.51s.33-2.28-.64-3.55h0a2.18,2.18,0,0,1-1.23.46c-2.1.09-2.76-2.41-5.49-2S12.1,6.66,10.37,7c-1.4.28-2.58-.63-5.17.19a4.11,4.11,0,0,0-2.9,3.65,5.41,5.41,0,0,0,1,3.75,4.26,4.26,0,0,0,2.2,1.56,4.53,4.53,0,0,0,1.07.13,1.29,1.29,0,0,0,.21-.07,2.77,2.77,0,0,0,1.4-1,2.18,2.18,0,0,0,.12-1.75c-.21-.43-.7-.46-1.36-.68-.49-.16-.92-.23-1-.49s0-.84.41-.78,1.38.32,1.76.14a.79.79,0,0,0,.3-.78A2.22,2.22,0,0,1,8.35,10c.13-.38.75-.54,1.07-.5s.45.56.63,1a.9.9,0,0,0,.66.57c.67.13.89-.59,1.27-.65a.59.59,0,0,1,.58.46c0,.31-.45.67-.79,1.06s-.59.64-.56,1.14c.07,1,.89,1.71,2.2,1.73h.25c1.87-.12,2.12-2.26,1.92-2.81a2.09,2.09,0,0,0-.79-.81,3.91,3.91,0,0,1-.89-.66.6.6,0,0,1,.36-.8c.25-.06.62.2,1,.37a1.57,1.57,0,0,0,1,.23c.27-.06.37-.36.5-.88.06-.26.24-1,.56-1.11a1.09,1.09,0,0,1,1.19.23c.19.24.11.48.07.89s-.16.83.14,1.08a1.23,1.23,0,0,0,1,.13c.41-.1.71-.31,1-.26s.39.42.34.67-.22.32-.51.47a2.52,2.52,0,0,0-.89,3.81,2.37,2.37,0,0,0,1.28.8h0a5.12,5.12,0,0,0,2.1.06,2.68,2.68,0,0,0,1.89-1.81A3.14,3.14,0,0,0,24.29,11.18Z"/></mask><linearGradient id="무제_그라디언트_18" x1="2.27" y1="10.41" x2="25.04" y2="10.41" gradientUnits="userSpaceOnUse"><stop offset="0" stop-color="#89b048"/><stop offset="1" stop-color="#169755"/></linearGradient><linearGradient id="무제_그라디언트_32" y1="8.21" x2="21.15" y2="8.21" gradientUnits="userSpaceOnUse"><stop offset="0" stop-color="#d2d44e"/><stop offset="1" stop-color="#7bad53"/></linearGradient><linearGradient id="무제_그라디언트_17" x1="20.86" y1="10.57" x2="29.36" y2="10.57" gradientUnits="userSpaceOnUse"><stop offset="0" stop-color="#85c2ca"/><stop offset="1" stop-color="#64bcea"/></linearGradient></defs><g id="레이어_2" data-name="레이어 2"><g id="레이어_1-2" data-name="레이어 1"><polygon class="cls-1" points="40.64 5.67 39.54 5.67 39.54 12.3 40.64 12.3 40.64 9.25 41.88 9.25 41.88 8.36 40.64 8.36 40.64 5.67"/><path class="cls-1" d="M40.89,13.49a4,4,0,0,1-.62.13,6,6,0,0,1-.82.05H37V11.89h-1.1v2.66h3.59a6.7,6.7,0,0,0,.85-.05,5.73,5.73,0,0,0,.69-.16h.07L41,13.47Z"/><path class="cls-1" d="M37.19,11.3a1.94,1.94,0,0,0,.62-.33,1.68,1.68,0,0,0,.41-.54,1.47,1.47,0,0,0,.16-.7A1.51,1.51,0,0,0,38.22,9a1.54,1.54,0,0,0-.41-.53,2,2,0,0,0-.62-.34,2.62,2.62,0,0,0-1.52,0,1.86,1.86,0,0,0-.62.34,1.46,1.46,0,0,0-.42.53,1.64,1.64,0,0,0-.15.71,1.6,1.6,0,0,0,.15.7,1.58,1.58,0,0,0,.42.54,1.84,1.84,0,0,0,.62.33,2.33,2.33,0,0,0,.76.12A2.37,2.37,0,0,0,37.19,11.3Zm-1.63-1.24a.72.72,0,0,1-.07-.33.67.67,0,0,1,.07-.33.61.61,0,0,1,.21-.24.86.86,0,0,1,.3-.16A1.42,1.42,0,0,1,36.43,9a1.49,1.49,0,0,1,.36.05,1,1,0,0,1,.3.16.7.7,0,0,1,.21.24.67.67,0,0,1,.07.33.72.72,0,0,1-.07.33,1,1,0,0,1-.21.24.94.94,0,0,1-.3.15,1.26,1.26,0,0,1-.72,0,.84.84,0,0,1-.3-.15A.79.79,0,0,1,35.56,10.06Z"/><path class="cls-1" d="M35.25,6.56l.46.06.5,0H38V5.81H36.69a6.29,6.29,0,0,1-.88-.06l-.76-.13L35,5.6l-.18.87.08,0Z"/><rect class="cls-1" x="33.85" y="6.95" width="5.14" height="0.89"/><path class="cls-1" d="M49.09,8.46c0-.22.07-.42.09-.59s0-.33,0-.46,0-.22,0-.28V5.91H44V6.8h4.21v.39q0,.18,0,.66A6.88,6.88,0,0,1,47.9,9H42.66V10H46v1.2H43.94v.89H48v2.59h1.09V11.17h-2V10h3.35V9H49A4.73,4.73,0,0,0,49.09,8.46Z"/><polygon class="cls-1" points="58.09 5.67 56.99 5.67 56.99 12.11 58.09 12.11 58.09 9.15 59.34 9.15 59.34 8.26 58.09 8.26 58.09 5.67"/><path class="cls-1" d="M53.79,9.09,55.67,11l.67-.75L54.19,8.08a3.78,3.78,0,0,0,.1-.57,4.17,4.17,0,0,0,0-.61v-1H53.25v.88a4.31,4.31,0,0,1-.1,1,2.93,2.93,0,0,1-.29.8,5.16,5.16,0,0,1-.35.51c-.13.16-.28.32-.42.47a6,6,0,0,1-.46.42,5,5,0,0,1-.42.33l-.07.05.67.79.06,0c.16-.12.34-.25.52-.4s.36-.32.54-.5a7,7,0,0,0,.51-.58A5.26,5.26,0,0,0,53.79,9.09Z"/><path class="cls-1" d="M58.34,13.49a3.77,3.77,0,0,1-.62.13,6,6,0,0,1-.82.05H54.41V11.4h-1.1v3.15H56.9a6.7,6.7,0,0,0,.85-.05,6.36,6.36,0,0,0,.7-.16h.06l-.08-.86Z"/><rect class="cls-1" x="65.91" y="5.67" width="1.1" height="5.32"/><path class="cls-1" d="M60.42,7.89v2.87h2.11A11.33,11.33,0,0,0,64,10.67c.46-.07.88-.15,1.24-.24l.07,0-.17-.86h-.08a10.08,10.08,0,0,1-1.19.22,11.49,11.49,0,0,1-1.33.07h-1V8.77h2.95V6H60.39v.89h3v1Z"/><path class="cls-1" d="M62.15,14.72H67V11.29H62.15Zm3.77-2.54v1.65H63.25V12.18Z"/><polygon class="cls-1" points="69.52 12.41 73.6 12.41 73.6 14.65 74.69 14.65 74.69 11.52 69.52 11.52 69.52 12.41"/><path class="cls-1" d="M72.7,9.35h2.11V5.85H73.72v1H70.59v-1h-1.1v3.5h2.1v.7H68.24V11h7.81v-.93H72.7Zm1-1.63v.74H70.59V7.72Z"/><path class="cls-1" d="M80.12,7.5V7h1.74V6.08H77.3V7H79v.41a4.58,4.58,0,0,1-.09,1,3.46,3.46,0,0,1-.65,1.39,5.34,5.34,0,0,1-.43.5,4.81,4.81,0,0,1-.47.44c-.15.12-.29.24-.42.33l-.08,0,.7.8.05-.05c.15-.11.32-.24.51-.4s.36-.33.54-.51a7.34,7.34,0,0,0,.51-.6,5.49,5.49,0,0,0,.35-.54l1.91,1.92.71-.74L80,8.71A5.28,5.28,0,0,0,80.12,7.5Z"/><rect class="cls-1" x="82.96" y="5.67" width="1.1" height="8.12"/><path class="cls-1" d="M92.69,13.49a4.26,4.26,0,0,1-.62.13,6.09,6.09,0,0,1-.82.05H88.66V11.4h-1.1v3.15h3.69a6.53,6.53,0,0,0,.84-.05,5.88,5.88,0,0,0,.7-.16h.06l-.08-.86Z"/><path class="cls-1" d="M87.93,9.13,89.87,11l.67-.75L88.35,8.15A4.76,4.76,0,0,0,88.51,7h1.74V6.06H85.69V7h1.74A3.72,3.72,0,0,1,87,8.57a5.16,5.16,0,0,1-.35.51c-.14.17-.28.33-.43.48l-.46.41a4.71,4.71,0,0,1-.42.32l-.08,0,.68.79,0,0q.24-.16.51-.39c.18-.15.36-.31.54-.49a5.37,5.37,0,0,0,.5-.57A4,4,0,0,0,87.93,9.13Z"/><rect class="cls-1" x="91.34" y="5.67" width="1.1" height="6.44"/><path class="cls-1" d="M95.34,8.39a1.27,1.27,0,0,0,.21.74,1.66,1.66,0,0,0,.54.48,2.73,2.73,0,0,0,.73.25,4.33,4.33,0,0,0,1.55,0,2.79,2.79,0,0,0,.72-.25,1.59,1.59,0,0,0,.55-.48,1.27,1.27,0,0,0,.21-.74A1.18,1.18,0,0,0,99.78,8l-.11-.22h1V6.86H94.5v.88h1A1.2,1.2,0,0,0,95.34,8.39Zm1,0a.45.45,0,0,1,.12-.33,1,1,0,0,1,.31-.22,1.76,1.76,0,0,1,.41-.11l.4,0,.39,0a1.76,1.76,0,0,1,.41.11.91.91,0,0,1,.31.22.45.45,0,0,1,.12.33.48.48,0,0,1-.11.32.81.81,0,0,1-.3.21A1.76,1.76,0,0,1,98,9a2.89,2.89,0,0,1-.83,0,1.76,1.76,0,0,1-.41-.11.78.78,0,0,1-.29-.21A.44.44,0,0,1,96.36,8.39Z"/><path class="cls-1" d="M99.21,12a2.37,2.37,0,0,0-.74-.32,3.58,3.58,0,0,0-1.78,0,2.54,2.54,0,0,0-.75.32,1.87,1.87,0,0,0-.51.54,1.34,1.34,0,0,0-.19.72,1.36,1.36,0,0,0,.19.72,1.72,1.72,0,0,0,.51.53,2.14,2.14,0,0,0,.75.33,3.66,3.66,0,0,0,1.78,0,2.17,2.17,0,0,0,.74-.33,1.61,1.61,0,0,0,.51-.53,1.37,1.37,0,0,0,.2-.72,1.34,1.34,0,0,0-.2-.72A1.74,1.74,0,0,0,99.21,12Zm-2.85,1.58a.56.56,0,0,1,0-.64.76.76,0,0,1,.28-.22,1.36,1.36,0,0,1,.43-.14,2.1,2.1,0,0,1,.51-.05,2.21,2.21,0,0,1,.51.05,1.3,1.3,0,0,1,.42.14.69.69,0,0,1,.28.22.49.49,0,0,1,.1.32.51.51,0,0,1-.1.32.78.78,0,0,1-.28.22,1.59,1.59,0,0,1-.42.14,2.91,2.91,0,0,1-1,0,1.81,1.81,0,0,1-.43-.14A.88.88,0,0,1,96.36,13.57Z"/><path class="cls-1" d="M96.26,6.41l.51.07.56,0,.49,0h1.63V5.66H97.82a3.7,3.7,0,0,1-.46,0l-.49,0-.46-.06-.36-.06-.08,0-.18.87.07,0A2.47,2.47,0,0,0,96.26,6.41Z"/><rect class="cls-1" x="93.67" y="10.27" width="7.81" height="0.93"/><polygon class="cls-1" points="106.49 11.76 108.43 11.76 108.43 12.69 109.53 12.69 109.53 5.67 108.43 5.67 108.43 10.88 106.49 10.88 106.49 11.76"/><path class="cls-1" d="M109.87,13.47l-.09,0a3.77,3.77,0,0,1-.62.13,6,6,0,0,1-.82.05h-2.91V12.28h-1.1v2.27h4a6.58,6.58,0,0,0,.85-.05,6.36,6.36,0,0,0,.7-.16H110Z"/><path class="cls-1" d="M104.52,12h1.11v-1.4a16.88,16.88,0,0,0,2.48-.31l.07,0L108,9.4l-.08,0a13.21,13.21,0,0,1-1.72.24c-.63.05-1.35.08-2.13.08h-1.7v.93h2.14Z"/><path class="cls-1" d="M103.69,8.93a2.07,2.07,0,0,0,.67.36,2.46,2.46,0,0,0,1.55,0,2.28,2.28,0,0,0,.67-.36,2,2,0,0,0,.47-.58,1.87,1.87,0,0,0,0-1.56,1.91,1.91,0,0,0-.47-.58,2.25,2.25,0,0,0-.67-.35,2.42,2.42,0,0,0-1.55,0,2.25,2.25,0,0,0-.67.35,1.91,1.91,0,0,0-.47.58,1.73,1.73,0,0,0,.47,2.13Zm2.4-1.74a.8.8,0,0,1,.09.39.74.74,0,0,1-.09.38.81.81,0,0,1-.24.28,1,1,0,0,1-.34.17,1.37,1.37,0,0,1-.75,0,1,1,0,0,1-.34-.17,1.11,1.11,0,0,1-.24-.28.74.74,0,0,1-.09-.38.8.8,0,0,1,.09-.39,1.31,1.31,0,0,1,.24-.28,1,1,0,0,1,.34-.16,1.19,1.19,0,0,1,.37-.06,1.26,1.26,0,0,1,.38.06.84.84,0,0,1,.34.17A.78.78,0,0,1,106.09,7.19Z"/><g class="cls-2"><rect class="cls-3" x="2.27" y="4.54" width="22.77" height="11.73"/></g><path class="cls-4" d="M5.83,16.4a3.81,3.81,0,0,0,.73-.13,4.53,4.53,0,0,1-1.07-.13,4.26,4.26,0,0,1-2.2-1.56,5.41,5.41,0,0,1-1-3.75A4.11,4.11,0,0,1,5.2,7.18C7.79,6.36,9,7.27,10.37,7c1.73-.33,1.44-2,4.06-2.4s3.39,2.08,5.49,2a2.18,2.18,0,0,0,1.23-.46h0A1.09,1.09,0,0,0,21,6l-.08-.08c-1.18-1.2-2.35-.08-3.7-1.47s-1-2.11-2.75-3.35A5.21,5.21,0,0,0,9.34.38c-3.15,1-2.83,2.71-4.47,3.09-1.1.25-1.75,0-2.69.48A3.37,3.37,0,0,0,.39,6.45c-.28,1.63.48,2,.4,3.09-.06.79-.67.81-.78,2.23A4.06,4.06,0,0,0,2,15.37a6.91,6.91,0,0,0,3.8,1Z"/><path class="cls-1" d="M20.64,10.37c-.25,0-.55.16-1,.26a1.23,1.23,0,0,1-1-.13c-.3-.25-.19-.62-.14-1.08s.12-.65-.07-.89A1.09,1.09,0,0,0,17.3,8.3c-.32.15-.5.85-.56,1.11-.13.52-.23.82-.5.88a1.57,1.57,0,0,1-1-.23c-.35-.17-.72-.43-1-.37a.6.6,0,0,0-.36.8,3.91,3.91,0,0,0,.89.66,2.09,2.09,0,0,1,.79.81c.2.55-.05,2.72-1.95,2.81h-.22c-1.31,0-2.13-.72-2.2-1.73,0-.5.23-.76.56-1.14s.81-.75.79-1.06a.59.59,0,0,0-.58-.46c-.38.06-.6.78-1.27.65a.9.9,0,0,1-.66-.57c-.18-.4-.23-.92-.63-1s-.94.12-1.07.5a2.22,2.22,0,0,0,.05.84.79.79,0,0,1-.3.78c-.38.18-1.25-.07-1.76-.14s-.5.5-.41.78.51.33,1,.49c.66.22,1.15.25,1.36.68a2.18,2.18,0,0,1-.12,1.75,2.77,2.77,0,0,1-1.4,1,3.54,3.54,0,0,1-.94.2h0a14.82,14.82,0,0,0,2.25-.31c.84-.19,1.46-.38,1.46-.38a2.69,2.69,0,0,0,.18-.49c.15-.52,0-1.06.28-1.11s.42.49.65.77a1.83,1.83,0,0,0,.39.36c.1,0,.63-.18,1.22-.31a8.14,8.14,0,0,1,1.37-.16,10,10,0,0,1,1.45.06c.55.06,1,.16,1,.17a3.4,3.4,0,0,0,.46-.58c.13-.2.36-.77.58-.75s.22.44.37,1a6,6,0,0,0,.2.65c.09,0,.75.17,1.42.35l1.71.42a3.11,3.11,0,0,1-2-3.63c.12-.41.65-.55,1-.72.57-.24,1-.48,1.08-.73S20.88,10.41,20.64,10.37Z"/><path class="cls-5" d="M20.86,16.12a9.21,9.21,0,0,0,1.14.2c.64.06,1.37.09,2.15.09a8.35,8.35,0,0,0,2.35-.35,3.87,3.87,0,0,0,2.79-3A3.71,3.71,0,0,0,29,10.68,3.59,3.59,0,0,0,27.7,9.42c-1.48-1.15-.33-2.51-1.55-3.77A3,3,0,0,0,22.81,5a9.62,9.62,0,0,0-1.66,1.14h0c1,1.27,0,2.61.64,3.55s1.58.54,2.5,1.51a3.14,3.14,0,0,1,.56,3.19A2.68,2.68,0,0,1,23,16.18a5.12,5.12,0,0,1-2.1-.06"/></g></g></svg>