<svg xmlns="http://www.w3.org/2000/svg" xmlns:xlink="http://www.w3.org/1999/xlink" viewBox="0 0 204.48 114.32"><defs><style>.cls-1{fill:#fff;}.cls-2{opacity:0.15;}.cls-3{mask:url(#mask);}.cls-4{fill:url(#무제_그라디언트_13);}.cls-5{fill:url(#무제_그라디언트_11);}.cls-6{fill:url(#무제_그라디언트_10);}</style><mask id="mask" x="15.81" y="31.63" width="158.59" height="81.71" maskUnits="userSpaceOnUse"><path class="cls-1" d="M74.16,103.64c-1.6-2-3-5.61-4.51-5.34-1.8.33-.91,4.09-1.93,7.71a17.63,17.63,0,0,1-1.3,3.38l.26-.08L67.9,109c3.13-1,6.09-1.91,9-2.78A15,15,0,0,1,74.16,103.64Z"/><path class="cls-1" d="M119.55,95.17c-1.54-.12-3.15,3.86-4,5.27a22.84,22.84,0,0,1-3.24,4c3.68.71,7.44,1.53,11.24,2.44a39.18,39.18,0,0,1-1.43-4.52C121,98.25,121.42,95.33,119.55,95.17Z"/><path class="cls-1" d="M145.06,112.23l-.09,0Z"/><path class="cls-1" d="M169.16,77.87c-6.41-6.77-12.71-4.18-17.37-10.52-4.85-6.58,2.29-15.85-4.47-24.76h0a15.49,15.49,0,0,1-8.58,3.27c-14.64.56-19.26-16.8-38.21-13.9-18.25,2.79-16.28,14.4-28.28,16.75-9.78,1.92-18-4.44-36,1.29-12.69,4-18.86,13.93-20.2,25.45A37.39,37.39,0,0,0,23,101.57c4.9,6.26,10.46,9.58,15.25,10.82a31.51,31.51,0,0,0,7.48.92c.52-.15,1-.3,1.5-.47a19,19,0,0,0,9.71-7.15c1.68-2.44,2.52-8.55.83-12.13-1.42-3-4.83-3.26-9.45-4.75-3.4-1.1-6.43-1.61-7-3.4-.61-2,.18-5.88,2.89-5.48,3.5.51,9.61,2.24,12.23,1,1.39-.65,2.28-2.92,2.07-5.47-.17-2.08-.9-4-.31-5.84.86-2.6,5.21-3.72,7.45-3.49,2.74.29,3.15,3.94,4.34,6.72a6.35,6.35,0,0,0,4.65,4c4.66.87,6.19-4.09,8.85-4.54a4,4,0,0,1,4,3.24c.18,2.16-3.08,4.65-5.47,7.39s-4.14,4.41-3.91,7.88c.47,7.06,6.21,12,15.31,12.07.51,0,1,0,1.48,0l.25,0c13-.77,14.78-15.73,13.36-19.5-.8-2.14-3-4-5.43-5.65s-5.51-3.36-6.26-4.59c-.9-1.49,0-5,2.53-5.62,1.71-.4,4.32,1.38,6.76,2.61s4.88,2,7,1.58c1.91-.39,2.58-2.5,3.47-6.12.45-1.84,1.69-6.67,3.9-7.72a7.59,7.59,0,0,1,8.3,1.58c1.31,1.7.78,3.32.48,6.21-.34,3.23-1.09,5.78,1,7.55,1.31,1.12,4.16,1.45,6.8.85,2.85-.65,4.93-2.12,6.71-1.81s2.7,3,2.38,4.68-3.55,3.44-7.55,5.11c-2.74,1.14-6.37,2.13-7.27,5-2.16,6.8,1.51,22.21,14,25.32h0c.15,0,8.58,2,14.61.42a18.67,18.67,0,0,0,13.2-12.62C175.34,92.3,175.1,84.14,169.16,77.87Z"/></mask><linearGradient id="무제_그라디언트_13" x1="15.81" y1="72.49" x2="174.4" y2="72.49" gradientUnits="userSpaceOnUse"><stop offset="0" stop-color="#acacac"/><stop offset="1" stop-color="#979797"/></linearGradient><linearGradient id="무제_그라디언트_11" y1="57.16" x2="147.32" y2="57.16" gradientUnits="userSpaceOnUse"><stop offset="0" stop-color="#ccc"/><stop offset="1" stop-color="#acacac"/></linearGradient><linearGradient id="무제_그라디언트_10" x1="145.28" y1="73.61" x2="204.48" y2="73.61" gradientUnits="userSpaceOnUse"><stop offset="0" stop-color="#ccc"/><stop offset="1" stop-color="#cecece"/></linearGradient></defs><g id="레이어_2" data-name="레이어 2"><g id="레이어_1-2" data-name="레이어 1"><g class="cls-2"><g class="cls-3"><rect class="cls-4" x="15.81" y="31.64" width="158.59" height="81.7"/></g><path class="cls-5" d="M40.58,114.22a27.35,27.35,0,0,0,5.1-.91,31.51,31.51,0,0,1-7.48-.92c-4.79-1.24-10.35-4.56-15.25-10.82a37.39,37.39,0,0,1-6.9-26.12C17.39,63.93,23.56,54,36.25,50c18-5.73,26.22.63,36-1.29,12-2.35,10-14,28.28-16.75,19-2.9,23.57,14.46,38.21,13.9a15.49,15.49,0,0,0,8.58-3.27h0c-.3-.39-.58-.78-.93-1.17-.18-.2-.36-.37-.54-.56-8.26-8.3-16.41-.52-25.79-10.24-8.56-8.86-6.8-14.66-19.17-23.27C91.56.86,81.41-2.8,65.07,2.65,43.1,10,45.31,21.51,33.93,24.15c-7.7,1.78-12.17.32-18.78,3.34C8,30.79,3.85,38.36,2.73,45,.79,56.3,6.07,58.75,5.5,66.44,5.09,71.93.86,72.11.08,82c-1,12.71,7.94,21.58,13.5,25.12,8.21,5.22,18.73,7.67,26.49,7.19l.5,0Z"/><path class="cls-1" d="M143.76,72.2c-1.78-.31-3.86,1.16-6.71,1.81-2.64.6-5.49.27-6.8-.85-2.1-1.77-1.35-4.32-1-7.55.3-2.89.83-4.51-.48-6.21a7.59,7.59,0,0,0-8.3-1.58c-2.21,1-3.45,5.88-3.9,7.72-.89,3.62-1.56,5.73-3.47,6.12-2.14.44-4.49-.3-7-1.58s-5-3-6.76-2.61c-2.49.59-3.43,4.13-2.53,5.62.75,1.23,3.85,2.94,6.26,4.59s4.63,3.51,5.43,5.65c1.43,3.79-.34,18.88-13.56,19.52-.5,0-1,0-1.53,0-9.1-.11-14.84-5-15.31-12.07-.23-3.47,1.62-5.26,3.91-7.88s5.65-5.23,5.47-7.39a4,4,0,0,0-4-3.24c-2.66.45-4.19,5.41-8.85,4.54a6.35,6.35,0,0,1-4.65-4c-1.19-2.78-1.6-6.43-4.34-6.72-2.24-.23-6.59.89-7.45,3.49-.59,1.79.14,3.76.31,5.84.21,2.55-.68,4.82-2.07,5.47-2.62,1.23-8.73-.5-12.23-1-2.71-.4-3.5,3.48-2.89,5.48.55,1.79,3.58,2.3,7,3.4,4.62,1.49,8,1.72,9.45,4.75,1.69,3.58.85,9.69-.83,12.13a19,19,0,0,1-9.71,7.15,27.2,27.2,0,0,1-6.61,1.39h0A108.72,108.72,0,0,0,56.26,112c5.83-1.32,10.15-2.64,10.16-2.64a17.63,17.63,0,0,0,1.3-3.38c1-3.62.13-7.38,1.93-7.71,1.49-.27,2.91,3.37,4.51,5.34a14.62,14.62,0,0,0,2.74,2.53c.69-.21,4.36-1.32,8.49-2.2a57.42,57.42,0,0,1,9.52-1.12,69.82,69.82,0,0,1,10.12.4c3.85.48,6.84,1.12,7.23,1.19a22.84,22.84,0,0,0,3.24-4c.9-1.41,2.51-5.39,4-5.27,1.87.16,1.46,3.08,2.52,7.19a40.16,40.16,0,0,0,1.43,4.53c.64.15,5.18,1.21,9.86,2.43,5.83,1.5,11.84,3,11.93,3-12.46-3.1-16.13-18.52-14-25.32.9-2.84,4.53-3.83,7.27-5,4-1.67,7.22-3.33,7.55-5.11S145.4,72.5,143.76,72.2Z"/><path class="cls-6" d="M145.28,112.28a65.26,65.26,0,0,0,7.93,1.38c4.49.45,9.57.66,15,.66a57.29,57.29,0,0,0,16.4-2.48C194.06,109,202.25,101.48,204,91c.76-4.56,1-10.55-2.16-16.58-2.32-4.46-5.14-5.89-8.94-8.83-10.32-8-2.25-17.46-10.76-26.2-5.12-5.26-14.15-8.8-23.29-4.66-4.79,2.16-8.06,5.42-11.53,7.87h0c6.76,8.91-.38,18.18,4.47,24.76,4.66,6.34,11,3.75,17.37,10.52,5.94,6.27,6.18,14.43,3.93,22.21a18.67,18.67,0,0,1-13.2,12.62c-6,1.62-14.46-.38-14.61-.42"/></g></g></g></svg>