<svg xmlns="http://www.w3.org/2000/svg" xmlns:xlink="http://www.w3.org/1999/xlink" viewBox="0 0 122.9 27.85"><defs><style>.cls-1{fill:#fff;}.cls-2{mask:url(#mask);}.cls-3{fill:url(#무제_그라디언트_18);}.cls-4{fill:url(#무제_그라디언트_32);}.cls-5{fill:url(#무제_그라디언트_17);}</style><mask id="mask" x="3.85" y="7.71" width="38.63" height="19.9" maskUnits="userSpaceOnUse"><path class="cls-1" d="M18.06,25.25c-.39-.48-.73-1.37-1.09-1.3s-.23,1-.47,1.87a4.67,4.67,0,0,1-.32.83l.06,0,.3-.09c.76-.23,1.48-.47,2.19-.68A3.67,3.67,0,0,1,18.06,25.25Z"/><path class="cls-1" d="M29.12,23.18c-.37,0-.76.94-1,1.29a5.16,5.16,0,0,1-.78,1c.89.17,1.81.38,2.74.6a9.17,9.17,0,0,1-.35-1.1C29.48,23.93,29.58,23.22,29.12,23.18Z"/><path class="cls-1" d="M35.34,27.34h0Z"/><path class="cls-1" d="M41.21,19c-1.56-1.65-3.1-1-4.24-2.56s.56-3.87-1.08-6h0a3.73,3.73,0,0,1-2.09.8c-3.57.14-4.7-4.09-9.31-3.38-4.45.68-4,3.5-6.89,4.08-2.38.46-4.38-1.09-8.77.31a6.94,6.94,0,0,0-4.92,6.2,9.15,9.15,0,0,0,1.68,6.36,7.09,7.09,0,0,0,3.72,2.64,7.41,7.41,0,0,0,1.82.22l.36-.11a4.64,4.64,0,0,0,2.37-1.74,3.66,3.66,0,0,0,.2-3c-.35-.74-1.18-.79-2.3-1.16-.83-.26-1.57-.39-1.7-.83s0-1.43.7-1.33c.85.12,2.34.55,3,.25a1.37,1.37,0,0,0,.51-1.34A3.65,3.65,0,0,1,14.17,17c.21-.63,1.27-.91,1.81-.85s.77,1,1.06,1.64a1.55,1.55,0,0,0,1.13,1c1.14.22,1.51-1,2.16-1.1a1,1,0,0,1,1,.79c.05.52-.75,1.13-1.33,1.8s-1,1.07-.95,1.92c.11,1.72,1.51,2.91,3.73,2.94h.42c3.17-.19,3.6-3.83,3.25-4.75a3.38,3.38,0,0,0-1.32-1.38,6.83,6.83,0,0,1-1.52-1.12,1,1,0,0,1,.61-1.36c.42-.1,1,.33,1.65.63a2.76,2.76,0,0,0,1.71.39c.46-.1.63-.61.84-1.49.11-.45.42-1.63.95-1.89a1.86,1.86,0,0,1,2,.39c.31.41.19.81.11,1.51s-.26,1.41.25,1.84a2.09,2.09,0,0,0,1.66.21c.69-.16,1.2-.52,1.63-.44s.66.72.58,1.14c-.05.27-.39.54-.88.8A4.27,4.27,0,0,0,33.22,26a4.17,4.17,0,0,0,2.17,1.35h0a8.66,8.66,0,0,0,3.56.1,4.52,4.52,0,0,0,3.21-3.07A5.33,5.33,0,0,0,41.21,19Z"/></mask><linearGradient id="무제_그라디언트_18" x1="3.85" y1="17.66" x2="42.48" y2="17.66" gradientUnits="userSpaceOnUse"><stop offset="0" stop-color="#89b048"/><stop offset="1" stop-color="#169755"/></linearGradient><linearGradient id="무제_그라디언트_32" y1="13.92" x2="35.89" y2="13.92" gradientUnits="userSpaceOnUse"><stop offset="0" stop-color="#d2d44e"/><stop offset="1" stop-color="#7bad53"/></linearGradient><linearGradient id="무제_그라디언트_17" x1="35.39" y1="17.93" x2="49.81" y2="17.93" gradientUnits="userSpaceOnUse"><stop offset="0" stop-color="#85c2ca"/><stop offset="1" stop-color="#64bcea"/></linearGradient></defs><g id="레이어_2" data-name="레이어 2"><g id="레이어_1-2" data-name="레이어 1"><polygon class="cls-1" points="58.96 16.8 57.95 16.8 57.95 22.92 58.96 22.92 58.96 20.1 60.11 20.1 60.11 19.27 58.96 19.27 58.96 16.8"/><path class="cls-1" d="M59.19,24a4.78,4.78,0,0,1-.57.12,5.35,5.35,0,0,1-.76,0h-2.3V22.53h-1V25h3.31a5.56,5.56,0,0,0,.78,0,5.42,5.42,0,0,0,.65-.14l.05,0L59.27,24Z"/><path class="cls-1" d="M55.77,22a1.71,1.71,0,0,0,.58-.31,1.41,1.41,0,0,0,.38-.49,1.55,1.55,0,0,0,.14-.65,1.51,1.51,0,0,0-.14-.65,1.45,1.45,0,0,0-.38-.5,2.14,2.14,0,0,0-.58-.31,2.39,2.39,0,0,0-1.4,0,2.08,2.08,0,0,0-.57.31,1.45,1.45,0,0,0-.38.5,1.38,1.38,0,0,0-.14.65,1.45,1.45,0,0,0,.52,1.14,1.66,1.66,0,0,0,.57.31,2.33,2.33,0,0,0,.7.11A2.23,2.23,0,0,0,55.77,22Zm-1.5-1.15a.73.73,0,0,1-.06-.3.7.7,0,0,1,.06-.3.71.71,0,0,1,.19-.23.82.82,0,0,1,.28-.14,1.26,1.26,0,0,1,.33-.05,1.27,1.27,0,0,1,.34.05.92.92,0,0,1,.28.14.68.68,0,0,1,.18.23.58.58,0,0,1,.07.3.6.6,0,0,1-.07.3.68.68,0,0,1-.18.23,1.22,1.22,0,0,1-.28.14,1.27,1.27,0,0,1-.67,0,1.22,1.22,0,0,1-.28-.14A.71.71,0,0,1,54.27,20.84Z"/><path class="cls-1" d="M54,17.62l.42.06.46,0h1.62v-.81H55.32a5.55,5.55,0,0,1-.82-.06,5.62,5.62,0,0,1-.7-.12h-.07l-.16.8.06,0Z"/><rect class="cls-1" x="52.7" y="17.97" width="4.74" height="0.82"/><path class="cls-1" d="M66.76,19.37c0-.2.06-.38.08-.55s0-.3,0-.42,0-.2,0-.26V17H62v.82H65.9v.36q0,.16,0,.6a6.22,6.22,0,0,1-.21,1.1H60.83v.86h3.09v1.11H62v.82h3.77v2.39h1V21.87H64.94V20.76H68V19.9H66.64C66.69,19.72,66.73,19.54,66.76,19.37Z"/><polygon class="cls-1" points="75.06 16.8 74.05 16.8 74.05 22.74 75.06 22.74 75.06 20.01 76.21 20.01 76.21 19.18 75.06 19.18 75.06 16.8"/><path class="cls-1" d="M71.09,20l1.74,1.74.62-.69-2-2a4.76,4.76,0,0,0,.1-.52,5.59,5.59,0,0,0,0-.57V17h-1v.81a4.91,4.91,0,0,1-.08.89,2.84,2.84,0,0,1-.28.74,3.55,3.55,0,0,1-.32.47,5.34,5.34,0,0,1-.39.44c-.14.14-.28.26-.42.38a4.12,4.12,0,0,1-.39.3l-.07.05.62.73.06,0c.15-.1.31-.23.48-.37s.33-.29.5-.46a6.11,6.11,0,0,0,.47-.53A4.45,4.45,0,0,0,71.09,20Z"/><path class="cls-1" d="M75.29,24a4.78,4.78,0,0,1-.57.12,5.35,5.35,0,0,1-.76,0h-2.3V22.08h-1V25H74a5.83,5.83,0,0,0,.79,0,5.27,5.27,0,0,0,.64-.14l.06,0L75.37,24Z"/><rect class="cls-1" x="82.27" y="16.8" width="1.02" height="4.91"/><path class="cls-1" d="M77.2,18.84v2.65h2a9.62,9.62,0,0,0,1.34-.09,8,8,0,0,0,1.14-.22h.07l-.16-.8-.07,0a8.67,8.67,0,0,1-1.1.19,9.62,9.62,0,0,1-1.22.08h-.94v-1H81V17.07H77.18v.81h2.76v1Z"/><path class="cls-1" d="M78.8,25.14h4.48V22H78.8Zm3.48-2.34v1.53H79.82V22.8Z"/><polygon class="cls-1" points="85.6 23.02 89.37 23.02 89.37 25.08 90.38 25.08 90.38 22.19 85.6 22.19 85.6 23.02"/><path class="cls-1" d="M88.54,20.19h1.94V17h-1v.91H86.59V17h-1v3.23h1.94v.64H84.43v.87h7.2v-.87H88.54Zm.93-1.5v.68H86.59v-.68Z"/><path class="cls-1" d="M95.38,18.48V18H97v-.82H92.78V18h1.6v.39a4.68,4.68,0,0,1-.08.87A3.35,3.35,0,0,1,94,20a2.78,2.78,0,0,1-.33.51,5.85,5.85,0,0,1-.4.47q-.21.21-.42.39a4.4,4.4,0,0,1-.4.31l-.06.05.64.73,0,0a5.74,5.74,0,0,0,.46-.37,5.47,5.47,0,0,0,.5-.47,6.19,6.19,0,0,0,.47-.55c.12-.17.23-.33.33-.5l1.76,1.77.65-.68-2-2A4.52,4.52,0,0,0,95.38,18.48Z"/><rect class="cls-1" x="98" y="16.8" width="1.01" height="7.49"/><path class="cls-1" d="M107,24a4.78,4.78,0,0,1-.57.12,5.2,5.2,0,0,1-.75,0h-2.39V22.08h-1V25h3.41a5.67,5.67,0,0,0,.78,0,4.89,4.89,0,0,0,.64-.14l.06,0-.07-.79Z"/><path class="cls-1" d="M102.59,20l1.78,1.7L105,21l-2-1.92a4,4,0,0,0,.15-1.11h1.61v-.81h-4.21V18h1.6a3.23,3.23,0,0,1-.37,1.5,2.79,2.79,0,0,1-.32.47,5.56,5.56,0,0,1-.39.44,4.88,4.88,0,0,1-.43.38,2.78,2.78,0,0,1-.39.29l-.07.05.63.73,0,0a5.14,5.14,0,0,0,.47-.35c.17-.14.33-.29.5-.46a4.62,4.62,0,0,0,.46-.52C102.38,20.3,102.5,20.14,102.59,20Z"/><rect class="cls-1" x="105.73" y="16.8" width="1.01" height="5.94"/><path class="cls-1" d="M109.42,19.3a1.19,1.19,0,0,0,.2.69,1.52,1.52,0,0,0,.5.44,2.64,2.64,0,0,0,.67.23,3.69,3.69,0,0,0,1.43,0,2.94,2.94,0,0,0,.67-.23,1.52,1.52,0,0,0,.5-.44,1.19,1.19,0,0,0,.2-.69,1.23,1.23,0,0,0-.07-.39,1.24,1.24,0,0,0-.1-.2h1v-.82h-5.74v.82h.94A1.07,1.07,0,0,0,109.42,19.3Zm1,0a.42.42,0,0,1,.1-.3,1,1,0,0,1,.29-.2,1.64,1.64,0,0,1,.38-.1l.37,0,.36,0a1.64,1.64,0,0,1,.38.1,1,1,0,0,1,.29.2.42.42,0,0,1,.1.3.4.4,0,0,1-.1.3.84.84,0,0,1-.28.2,1.43,1.43,0,0,1-.37.09,2.49,2.49,0,0,1-.77,0,1.43,1.43,0,0,1-.37-.09.84.84,0,0,1-.28-.2A.4.4,0,0,1,110.37,19.3Z"/><path class="cls-1" d="M113,22.63a2.16,2.16,0,0,0-.69-.3,3.25,3.25,0,0,0-1.64,0,2.16,2.16,0,0,0-.69.3,1.46,1.46,0,0,0-.47.49,1.27,1.27,0,0,0-.18.67,1.23,1.23,0,0,0,.18.66,1.49,1.49,0,0,0,.47.5,2.4,2.4,0,0,0,.69.3,3.61,3.61,0,0,0,.82.1,3.68,3.68,0,0,0,.82-.1A2.4,2.4,0,0,0,113,25a1.72,1.72,0,0,0,.47-.5,1.23,1.23,0,0,0,.18-.66,1.27,1.27,0,0,0-.18-.67A1.69,1.69,0,0,0,113,22.63Zm-2.63,1.45a.43.43,0,0,1-.1-.29.45.45,0,0,1,.1-.3.67.67,0,0,1,.26-.2,1.37,1.37,0,0,1,.39-.13,2.23,2.23,0,0,1,.94,0,1.37,1.37,0,0,1,.39.13.75.75,0,0,1,.26.2.49.49,0,0,1,.09.3.48.48,0,0,1-.09.29.92.92,0,0,1-.26.21,1.49,1.49,0,0,1-.39.13,3,3,0,0,1-.94,0,1.37,1.37,0,0,1-.39-.13A.8.8,0,0,1,110.37,24.08Z"/><path class="cls-1" d="M110.27,17.48l.48.06.51,0,.45,0h1.51v-.81h-1.51l-.42,0-.46,0-.42-.06-.33-.06H110l-.17.8h.07A2.08,2.08,0,0,0,110.27,17.48Z"/><rect class="cls-1" x="107.89" y="21.04" width="7.2" height="0.86"/><polygon class="cls-1" points="119.71 22.41 121.5 22.41 121.5 23.27 122.52 23.27 122.52 16.8 121.5 16.8 121.5 21.61 119.71 21.61 119.71 22.41"/><path class="cls-1" d="M122.83,24l-.08,0a5.23,5.23,0,0,1-.57.12,5.44,5.44,0,0,1-.76,0h-2.69V22.89h-1V25h3.7a5.56,5.56,0,0,0,.78,0,5.42,5.42,0,0,0,.65-.14l.05,0Z"/><path class="cls-1" d="M117.9,22.67h1V21.38a14.51,14.51,0,0,0,2.28-.29h.07l-.16-.84H121a13.17,13.17,0,0,1-1.59.23c-.58,0-1.24.07-2,.07h-1.56v.86h2Z"/><path class="cls-1" d="M117.13,19.8a2,2,0,0,0,.62.34,2.35,2.35,0,0,0,1.42,0,1.94,1.94,0,0,0,.62-.33,1.61,1.61,0,0,0,.43-.54,1.49,1.49,0,0,0,.17-.71,1.53,1.53,0,0,0-.17-.72,1.48,1.48,0,0,0-.43-.53,1.76,1.76,0,0,0-.62-.33,2.16,2.16,0,0,0-1.42,0,1.76,1.76,0,0,0-.62.33,1.48,1.48,0,0,0-.43.53,1.59,1.59,0,0,0,0,1.43A1.48,1.48,0,0,0,117.13,19.8Zm2.21-1.6a.68.68,0,0,1,.08.36.67.67,0,0,1-.08.35.78.78,0,0,1-.22.26.89.89,0,0,1-.31.15,1.19,1.19,0,0,1-.7,0,.89.89,0,0,1-.31-.15.92.92,0,0,1-.22-.26.78.78,0,0,1-.08-.35.8.8,0,0,1,.08-.36.92.92,0,0,1,.22-.26,1.11,1.11,0,0,1,.31-.15,1.25,1.25,0,0,1,.7,0,1.11,1.11,0,0,1,.31.15A.78.78,0,0,1,119.34,18.2Z"/><g class="cls-2"><rect class="cls-3" x="3.85" y="7.71" width="38.63" height="19.9"/></g><path class="cls-4" d="M9.89,27.82a5.82,5.82,0,0,0,1.24-.22,7.41,7.41,0,0,1-1.82-.22,7.09,7.09,0,0,1-3.72-2.64,9.15,9.15,0,0,1-1.68-6.36,6.94,6.94,0,0,1,4.92-6.2c4.39-1.4,6.39.15,8.77-.31,2.92-.58,2.44-3.4,6.89-4.08,4.61-.71,5.74,3.52,9.31,3.38a3.73,3.73,0,0,0,2.09-.8h0l-.23-.28L35.53,10c-2-2-4-.12-6.28-2.49-2.09-2.16-1.66-3.57-4.67-5.67C22.3.21,19.83-.68,15.85.64,10.5,2.43,11,5.24,8.27,5.88c-1.88.44-3,.08-4.58.82A5.77,5.77,0,0,0,.66,11c-.47,2.76.82,3.36.68,5.23C1.24,17.52.21,17.57,0,20a6.86,6.86,0,0,0,3.29,6.12,11.56,11.56,0,0,0,6.45,1.75h.13Z"/><path class="cls-1" d="M35,17.59c-.43-.08-.94.28-1.63.44a2.09,2.09,0,0,1-1.66-.21c-.51-.43-.33-1.05-.25-1.84s.2-1.1-.11-1.51a1.86,1.86,0,0,0-2-.39c-.53.26-.84,1.44-.95,1.89-.21.88-.38,1.39-.84,1.49a2.76,2.76,0,0,1-1.71-.39c-.6-.3-1.23-.73-1.65-.63a1,1,0,0,0-.61,1.36,6.83,6.83,0,0,0,1.52,1.12,3.38,3.38,0,0,1,1.32,1.38c.35.92-.08,4.6-3.3,4.75h-.37c-2.22,0-3.62-1.22-3.73-2.94-.06-.85.39-1.28.95-1.92s1.38-1.28,1.33-1.8a1,1,0,0,0-1-.79c-.65.11-1,1.32-2.16,1.1a1.55,1.55,0,0,1-1.13-1c-.29-.68-.39-1.57-1.06-1.64s-1.6.22-1.81.85a3.65,3.65,0,0,0,.08,1.42,1.37,1.37,0,0,1-.51,1.34c-.64.3-2.13-.13-3-.25-.66-.1-.85.85-.7,1.33s.87.57,1.7.83c1.12.37,2,.42,2.3,1.16a3.66,3.66,0,0,1-.2,3,4.64,4.64,0,0,1-2.37,1.74,7.12,7.12,0,0,1-1.61.34h0a27.42,27.42,0,0,0,3.82-.54c1.42-.32,2.47-.64,2.47-.64a4.67,4.67,0,0,0,.32-.83c.24-.88,0-1.79.47-1.87s.7.82,1.09,1.3a3.67,3.67,0,0,0,.67.61c.17-.05,1.06-.32,2.07-.53a14,14,0,0,1,2.32-.28,17.46,17.46,0,0,1,2.47.1c.93.12,1.66.27,1.76.29a5.16,5.16,0,0,0,.78-1c.23-.35.62-1.32,1-1.29s.36.75.62,1.76a9.17,9.17,0,0,0,.35,1.1c.15,0,1.26.29,2.4.59,1.42.37,2.88.72,2.9.72-3-.75-3.93-4.51-3.4-6.17.22-.69,1.1-.93,1.77-1.21,1-.4,1.76-.81,1.84-1.24S35.42,17.66,35,17.59Z"/><path class="cls-5" d="M35.39,27.35a17.69,17.69,0,0,0,1.93.34c1.1.11,2.33.16,3.65.16a13.63,13.63,0,0,0,4-.61,6.54,6.54,0,0,0,4.73-5.07,6.22,6.22,0,0,0-.52-4A6.07,6.07,0,0,0,47,16c-2.51-1.94-.55-4.26-2.62-6.39A5,5,0,0,0,38.7,8.46a15.81,15.81,0,0,0-2.81,1.91h0c1.64,2.17-.1,4.43,1.08,6s2.68.91,4.24,2.56a5.33,5.33,0,0,1,.95,5.41A4.52,4.52,0,0,1,39,27.45a8.66,8.66,0,0,1-3.56-.1"/></g></g></svg>