<svg xmlns="http://www.w3.org/2000/svg" viewBox="0 0 59.26 69.26"><defs><style>.cls-1{fill:#fff;stroke:#221e1f;stroke-linecap:round;stroke-linejoin:round;stroke-width:4px;}.cls-2{fill:#221e1f;}.cls-3{fill:#1fa895;}</style></defs><g id="레이어_2" data-name="레이어 2"><g id="Layer_1" data-name="Layer 1"><rect class="cls-1" x="2.8" y="9.34" width="53.78" height="57.18"/><path class="cls-2" d="M57.26,69.26H2a2,2,0,0,1-2-2V9.34a2,2,0,0,1,2-2H57.26a2,2,0,0,1,2,2V67.26A2,2,0,0,1,57.26,69.26ZM4,65.26H55.26V11.34H4Z"/><rect class="cls-2" x="23.86" width="11.54" height="3.57"/><rect class="cls-3" x="17.01" y="4.5" width="25.25" height="9.67"/><path class="cls-2" d="M44.25,16.17H15V2.51H44.25ZM19,12.17H40.25V6.51H19Z"/><rect class="cls-2" x="11.23" y="26.28" width="36.79" height="3.38"/><rect class="cls-2" x="20.34" y="35.53" width="27.69" height="3.38"/><rect class="cls-2" x="28.79" y="44.35" width="19.23" height="3.38"/><rect class="cls-2" x="24.33" y="53.18" width="23.7" height="3.38"/></g></g></svg>