<svg xmlns="http://www.w3.org/2000/svg" viewBox="0 0 23.57 25.43"><defs><style>.cls-1{fill:#3797ff;}.cls-2{fill:none;stroke:#333;stroke-linecap:round;stroke-linejoin:round;stroke-width:1.11px;}.cls-3{fill:#fff;}</style></defs><g id="레이어_2" data-name="레이어 2"><g id="레이어_1-2" data-name="레이어 1"><polyline class="cls-1" points="22.18 24.87 19.3 24.87 19.3 14.21 23.01 14.21 18.93 9.37 18.93 2.5 20.23 2.5 20.23 0.55 15.03 0.55 15.13 2.5 16.33 2.78 16.33 6.77 12.92 3.36 2.82 14.21 6.6 14.21 6.6 24.87"/><polyline class="cls-2" points="22.18 24.87 19.3 24.87 19.3 14.21 23.01 14.21 18.93 9.37 18.93 2.5 20.23 2.5 20.23 0.55 15.03 0.55 15.13 2.5 16.33 2.78 16.33 6.77 11.97 1.95 0.55 14.21 5.01 14.21 5.01 24.87 1.76 24.87"/><rect class="cls-3" x="9.83" y="17.66" width="4.64" height="7.72"/><polyline class="cls-2" points="14.47 24.87 14.47 17.26 9.84 17.26 9.84 24.87"/></g></g></svg>