<svg xmlns="http://www.w3.org/2000/svg" viewBox="0 0 98.16 95.25"><defs><style>.cls-1{fill:#003763;}.cls-2{fill:#e4022d;}</style></defs><g id="레이어_2" data-name="레이어 2"><g id="Layer_1" data-name="Layer 1"><path class="cls-1" d="M73.54,45.46c-8.28-5.63-18.87-3.33-24.43,5.12A17.2,17.2,0,0,1,18,45.86h0L18,45.67l-.06-.21A22.21,22.21,0,0,1,17,38.63C17,23.22,32.85,6.08,55.61,6.08c23.31,0,36.65,17.74,40.08,27.61l-.17-.53A49.09,49.09,0,0,0,0,49.08c0,24.23,17.48,45,41.72,45C61.05,94.06,74,83.21,80,68.28,83.28,60.1,81,50.5,73.54,45.46Z"/><path class="cls-2" d="M96,34.64C93.13,25,79.7,6.08,55.61,6.08,32.85,6.08,17,23.22,17,38.63a22.21,22.21,0,0,0,.88,6.83,14.66,14.66,0,0,1-.44-3.5c0-16,16.06-27.17,32.57-27.17A40.47,40.47,0,0,1,90.51,55.27a44.61,44.61,0,0,1-24.73,40h0A49.11,49.11,0,0,0,98.16,49.08,48.62,48.62,0,0,0,96,34.64Z"/></g></g></svg>