<svg xmlns="http://www.w3.org/2000/svg" viewBox="0 0 70.69 66.63"><defs><style>.cls-1,.cls-2{fill:#fff;}.cls-2,.cls-3{stroke:#221e1f;stroke-linecap:round;stroke-linejoin:round;stroke-width:3px;}.cls-3{fill:none;}</style></defs><g id="레이어_2" data-name="레이어 2"><g id="Layer_1" data-name="Layer 1"><ellipse class="cls-1" cx="13.99" cy="18.44" rx="12.01" ry="8.94"/><ellipse class="cls-1" cx="57" cy="19.43" rx="12.01" ry="8.94"/><ellipse class="cls-1" cx="35.27" cy="12.25" rx="14.38" ry="10.7"/><polygon class="cls-1" points="20.89 56.57 18.35 65.38 2.77 64.85 5.6 57.45 11.05 56.05 20.89 56.57"/><polygon class="cls-1" points="49.65 56.72 51.86 64.51 68.58 64.96 65.75 57.56 60.3 56.16 49.65 56.72"/><ellipse class="cls-2" cx="35.45" cy="42.99" rx="6.22" ry="7.74"/><ellipse class="cls-2" cx="57" cy="45.89" rx="5.77" ry="6.5"/><ellipse class="cls-2" cx="13.39" cy="45.89" rx="5.77" ry="6.5"/><path class="cls-2" d="M54.72,10.51s13.24-.9,14.4,7.78c.83,6.21-6.35,8.91-6.35,8.91"/><path class="cls-3" d="M47.67,24.81s1.77,3.32,9.33,2.9v4.15"/><path class="cls-2" d="M16,9.8S2.72,8.89,1.57,17.57c-.83,6.22,6.35,8.91,6.35,8.91a19.15,19.15,0,0,0,5.47.72v4.66"/><path class="cls-3" d="M41.66,22s8.45-2.42,8.76-8.33S46.28,2,35.45,1.5c0,0-15.34,0-15.34,11.5,0,3.26,1.42,9,15.16,10V27.2"/><path class="cls-2" d="M17.78,27.2a8,8,0,0,0,5-3.48"/><path class="cls-3" d="M20.11,56.53S8,55.7,6.75,56.53a8.56,8.56,0,0,0-3.42,4.35C2.76,63.07,2,65.13,2,65.13"/><path class="cls-2" d="M21.46,64.51s2.07-8.39,5-9.53,15.13-1.14,17,0,4.14,6.52,5.18,9.53"/><path class="cls-3" d="M50.43,56.16s9.13-.27,11.3.05c2.37.35,4.49,1,5.42,3.53a34.83,34.83,0,0,1,1.45,5.39"/></g></g></svg>