<svg xmlns="http://www.w3.org/2000/svg" viewBox="0 0 18.05 15.78"><defs><style>.cls-1{fill:red;}.cls-1,.cls-2,.cls-3,.cls-4{stroke:#333;stroke-linecap:round;stroke-linejoin:round;}.cls-1,.cls-2,.cls-3{stroke-width:1.11px;}.cls-2,.cls-4{fill:none;}.cls-3{fill:#d1d1d1;}.cls-4{stroke-width:0.93px;}</style></defs><g id="레이어_2" data-name="레이어 2"><g id="레이어_1-2" data-name="레이어 1"><circle class="cls-1" cx="10.37" cy="7.89" r="1.79"/><path class="cls-2" d="M14.26,9.68a2.86,2.86,0,0,0,.62-1.79A2.94,2.94,0,0,0,14,5.83"/><rect class="cls-3" x="0.55" y="2.98" width="3.09" height="9.81"/><polygon class="cls-3" points="10.37 0.55 3.65 2.91 3.65 12.72 10.37 15.22 10.37 0.55"/><path class="cls-4" d="M15.88,11.43a2.9,2.9,0,0,0,.85-.76,4.61,4.61,0,0,0,.86-2.79,4.76,4.76,0,0,0-.71-2.57,2.89,2.89,0,0,0-1-1"/></g></g></svg>