<svg xmlns="http://www.w3.org/2000/svg" viewBox="0 0 36.2 28.02"><defs><style>.cls-1,.cls-2,.cls-4,.cls-6{fill:#fff;}.cls-2,.cls-4,.cls-5,.cls-6,.cls-8{stroke:#000;stroke-miterlimit:10;}.cls-2,.cls-5{stroke-width:0.73px;}.cls-3{fill:#0a9e0a;}.cls-4{stroke-width:0.56px;}.cls-5,.cls-8{fill:none;}.cls-6,.cls-8{stroke-width:0.59px;}.cls-7{fill:#3797ff;}.cls-9{fill:#73c121;}</style></defs><g id="레이어_2" data-name="레이어 2"><g id="레이어_1-2" data-name="레이어 1"><rect class="cls-1" x="14.65" y="19.5" width="9.07" height="8.16"/><rect class="cls-2" x="14.95" y="17.09" width="8.37" height="2.28"/><rect class="cls-3" x="15.9" y="19.5" width="7.82" height="8.16"/><line class="cls-2" x1="15.44" y1="17.09" x2="15.44" y2="15.9"/><path class="cls-4" d="M17,1.21s.68-1,1.44-.92,1.23.24,1.49,1a1.47,1.47,0,0,1,1.3-.44c.78.15,1,.42,1.09.86A7.41,7.41,0,0,1,22.39,3a1.24,1.24,0,0,1,1.06-.23,1.09,1.09,0,0,1,.91,1.12c0,.58.2,7.77,0,9a4.16,4.16,0,0,1-1.05,2.37,4,4,0,0,0-.64.89v.94"/><line class="cls-4" x1="19.94" y1="1.29" x2="19.94" y2="8.68"/><path class="cls-4" d="M17.29,8.5V1.62c-1.08-1.95-2.34,0-2.34,0v8.44a7,7,0,0,0-.58-1.94c-.45-.87-1.27-2-2.23-1.14-.6.51,1.13,4.75,1.4,5.42s1.88,3.35,1.88,3.35l0,.77"/><line class="cls-4" x1="22.35" y1="2.74" x2="22.35" y2="8.68"/><line class="cls-5" x1="20.73" y1="18.22" x2="21.99" y2="18.22"/><rect class="cls-5" x="14.37" y="19.36" width="9.52" height="8.3"/><rect class="cls-1" x="2.41" y="21.1" width="7.29" height="6.55"/><rect class="cls-6" x="2.65" y="19.16" width="6.72" height="1.83"/><rect class="cls-7" x="3.42" y="21.1" width="6.29" height="6.55"/><line class="cls-6" x1="3.05" y1="19.16" x2="3.05" y2="18.21"/><path class="cls-6" d="M4.31,6.4s.55-.81,1.16-.74,1,.2,1.2.81a1.19,1.19,0,0,1,1-.36c.63.12.81.34.88.7a5.79,5.79,0,0,1,0,1,1,1,0,0,1,.85-.18.87.87,0,0,1,.74.9c0,.46.16,6.24,0,7.24a3.37,3.37,0,0,1-.84,1.9,3.37,3.37,0,0,0-.52.72v.75"/><line class="cls-6" x1="6.67" y1="6.47" x2="6.67" y2="12.41"/><path class="cls-6" d="M4.54,12.26V6.74c-.87-1.58-1.89,0-1.89,0v6.77A5.26,5.26,0,0,0,2.19,12c-.36-.7-1-1.57-1.8-.91-.47.41.92,3.82,1.13,4.36S3,18.09,3,18.09l0,.61"/><line class="cls-6" x1="8.6" y1="7.63" x2="8.6" y2="12.41"/><line class="cls-8" x1="7.3" y1="20.08" x2="8.31" y2="20.08"/><rect class="cls-8" x="2.19" y="20.99" width="7.65" height="6.67"/><rect class="cls-1" x="28.03" y="21.1" width="7.29" height="6.55"/><rect class="cls-6" x="28.27" y="19.16" width="6.72" height="1.83"/><rect class="cls-9" x="29.03" y="21.1" width="6.29" height="6.55"/><line class="cls-6" x1="28.66" y1="19.16" x2="28.66" y2="18.21"/><path class="cls-6" d="M29.92,6.4s.55-.81,1.16-.74,1,.2,1.2.81a1.21,1.21,0,0,1,1-.36c.63.12.81.34.88.7a6.19,6.19,0,0,1,0,1,1,1,0,0,1,.85-.18.86.86,0,0,1,.73.9c0,.46.16,6.24,0,7.24a3.37,3.37,0,0,1-.84,1.9,3.37,3.37,0,0,0-.52.72v.75"/><line class="cls-6" x1="32.28" y1="6.47" x2="32.28" y2="12.41"/><path class="cls-6" d="M30.15,12.26V6.74c-.87-1.58-1.88,0-1.88,0v6.77A5.45,5.45,0,0,0,27.8,12c-.36-.7-1-1.57-1.79-.91-.48.41.91,3.82,1.13,4.36s1.5,2.69,1.5,2.69l0,.61"/><line class="cls-6" x1="34.22" y1="7.63" x2="34.22" y2="12.41"/><line class="cls-8" x1="32.92" y1="20.08" x2="33.93" y2="20.08"/><rect class="cls-8" x="27.8" y="20.99" width="7.65" height="6.67"/></g></g></svg>