<svg xmlns="http://www.w3.org/2000/svg" viewBox="0 0 28.43 28.88"><defs><style>.cls-1{fill:#73c121;}.cls-2,.cls-3,.cls-5{fill:none;stroke:#333;}.cls-2,.cls-5{stroke-miterlimit:10;}.cls-3{stroke-linecap:round;stroke-linejoin:round;}.cls-4{fill:#429229;}.cls-5{stroke-width:1.11px;}</style></defs><g id="레이어_2" data-name="레이어 2"><g id="레이어_1-2" data-name="레이어 1"><rect class="cls-1" x="15.4" y="2.61" width="12.53" height="19.18" rx="4.57"/><rect class="cls-2" x="14" y="2.61" width="13.94" height="19.18" rx="4.57"/><line class="cls-3" x1="21.18" y1="28.23" x2="21.18" y2="9.26"/><line class="cls-3" x1="20.93" y1="14.82" x2="16.88" y2="12.25"/><line class="cls-3" x1="21.18" y1="19.4" x2="25.05" y2="15.42"/><line class="cls-2" x1="16.35" y1="28.38" x2="26" y2="28.38"/><line class="cls-3" x1="5.94" y1="28.23" x2="5.94" y2="17.91"/><line class="cls-2" x1="1.12" y1="28.23" x2="10.76" y2="28.23"/><path class="cls-4" d="M10.76,20.59C10.76,18.17,9.5,1.07,7,1.07S1.82,18.17,1.82,20.59A4.43,4.43,0,0,0,6.29,25,4.43,4.43,0,0,0,10.76,20.59Z"/><path class="cls-5" d="M11.32,20.59c0-2.42-2.41-20-5.38-20S.55,18.17.55,20.59,3,25,5.94,25,11.32,23,11.32,20.59Z"/></g></g></svg>