<?xml version="1.0" encoding="utf-8"?>
<!-- Generator: Adobe Illustrator 13.0.0, SVG Export Plug-In . SVG Version: 6.00 Build 14948)  -->
<!DOCTYPE svg PUBLIC "-//W3C//DTD SVG 1.1//EN" "http://www.w3.org/Graphics/SVG/1.1/DTD/svg11.dtd">
<svg version="1.1" id="Layer_1" xmlns="http://www.w3.org/2000/svg" xmlns:xlink="http://www.w3.org/1999/xlink" x="0px" y="0px"
	 width="372.236px" height="151.504px" viewBox="0 0 372.236 151.504" enable-background="new 0 0 372.236 151.504"
	 xml:space="preserve">
<polygon points="174.752,67.789 164.536,60.386 187.042,29.366 209.081,60.386 198.863,67.789 187.042,50.836 "/>
<g>
	<g>
		<g>
			<defs>
				<rect id="SVGID_1_" x="0" width="372.236" height="151.504"/>
			</defs>
			<clipPath id="SVGID_2_">
				<use xlink:href="#SVGID_1_"  overflow="visible"/>
			</clipPath>
			<path clip-path="url(#SVGID_2_)" d="M226.147,78.689c-3.445-3.307-7.616-4.961-12.51-4.961c-4.896,0-9.066,1.655-12.512,4.961
				c-3.444,3.312-5.168,7.365-5.168,12.173c0,4.711,1.724,8.743,5.168,12.102c3.443,3.353,7.615,5.031,12.512,5.031
				c4.894,0,9.063-1.681,12.51-5.031c3.444-3.356,5.168-7.391,5.168-12.102C231.315,86.055,229.594,82,226.147,78.689
				 M217.785,95.006c-1.135,1.133-2.516,1.699-4.146,1.699s-3.039-0.566-4.217-1.699c-1.18-1.133-1.769-2.516-1.769-4.145
				c0-1.633,0.589-3.015,1.769-4.15c1.178-1.131,2.585-1.699,4.217-1.699s3.013,0.568,4.146,1.699
				c1.134,1.139,1.698,2.52,1.698,4.15C219.483,92.491,218.919,93.874,217.785,95.006"/>
		</g>
	</g>
	<g>
		<g>
			<defs>
				<rect id="SVGID_3_" x="0" width="372.236" height="151.504"/>
			</defs>
			<clipPath id="SVGID_4_">
				<use xlink:href="#SVGID_3_"  overflow="visible"/>
			</clipPath>
			<polygon clip-path="url(#SVGID_4_)" points="206.687,54.433 206.687,42.045 217.869,42.045 217.869,29.538 231.317,29.538 
				231.317,68.18 217.869,68.18 217.869,54.433 			"/>
		</g>
	</g>
	<g>
		<g>
			<defs>
				<rect id="SVGID_5_" x="0" width="372.236" height="151.504"/>
			</defs>
			<clipPath id="SVGID_6_">
				<use xlink:href="#SVGID_5_"  overflow="visible"/>
			</clipPath>
			<polygon clip-path="url(#SVGID_6_)" points="255.979,46.275 255.979,13.337 293.599,13.337 293.599,25.576 269.276,25.576 
				269.276,34.035 293.599,34.035 293.599,46.275 281.663,46.275 281.663,55.793 303.177,55.793 303.177,68.182 247.009,68.182 
				247.009,55.793 268.367,55.793 268.367,46.275 			"/>
		</g>
	</g>
	<g>
		<g>
			<defs>
				<rect id="SVGID_7_" x="0" width="372.236" height="151.504"/>
			</defs>
			<clipPath id="SVGID_8_">
				<use xlink:href="#SVGID_7_"  overflow="visible"/>
			</clipPath>
			<path clip-path="url(#SVGID_8_)" d="M287.527,78.689c-3.448-3.307-7.615-4.961-12.511-4.961c-4.896,0-9.067,1.655-12.51,4.961
				c-3.448,3.312-5.17,7.365-5.17,12.173c0,4.713,1.722,8.748,5.17,12.102c3.44,3.353,7.611,5.031,12.51,5.031
				c4.896,0,9.063-1.681,12.511-5.031c3.441-3.354,5.166-7.389,5.166-12.102C292.693,86.055,290.969,82,287.527,78.689
				 M279.164,95.006c-1.136,1.137-2.514,1.699-4.146,1.699s-3.042-0.563-4.216-1.699c-1.183-1.133-1.771-2.514-1.771-4.145
				c0-1.633,0.588-3.015,1.771-4.15c1.174-1.131,2.582-1.699,4.216-1.699s3.012,0.568,4.146,1.699c1.132,1.139,1.7,2.52,1.7,4.15
				C280.864,92.495,280.296,93.874,279.164,95.006"/>
		</g>
	</g>
	<g>
		<g>
			<defs>
				<rect id="SVGID_9_" x="0" width="372.236" height="151.504"/>
			</defs>
			<clipPath id="SVGID_10_">
				<use xlink:href="#SVGID_9_"  overflow="visible"/>
			</clipPath>
			<polygon clip-path="url(#SVGID_10_)" points="362.964,55.792 362.964,29.537 324.737,29.537 324.737,42.078 349.669,42.078 
				349.669,55.792 316.07,55.792 316.07,68.18 337.581,68.18 337.581,93.715 350.878,93.715 350.878,68.18 372.236,68.18 
				372.236,55.792 			"/>
		</g>
	</g>
	<g>
		<g>
			<defs>
				<rect id="SVGID_11_" x="0" width="372.236" height="151.504"/>
			</defs>
			<clipPath id="SVGID_12_">
				<use xlink:href="#SVGID_11_"  overflow="visible"/>
			</clipPath>
			<polygon clip-path="url(#SVGID_12_)" fill="none" stroke="#000000" stroke-width="5" points="58.233,48.843 49.586,13.648 
				23.275,12.83 27.902,33.626 46.818,43.117 			"/>
		</g>
	</g>
	<g>
		<g>
			<defs>
				<rect id="SVGID_13_" x="0" width="372.236" height="151.504"/>
			</defs>
			<clipPath id="SVGID_14_">
				<use xlink:href="#SVGID_13_"  overflow="visible"/>
			</clipPath>
			<polygon clip-path="url(#SVGID_14_)" fill="none" stroke="#000000" stroke-width="5" points="67.935,57.717 77.915,64.761 
				79.654,40.608 51.587,17.65 58.234,48.843 			"/>
		</g>
	</g>
	<g>
		<g>
			<defs>
				<rect id="SVGID_15_" x="0" width="372.236" height="151.504"/>
			</defs>
			<clipPath id="SVGID_16_">
				<use xlink:href="#SVGID_15_"  overflow="visible"/>
			</clipPath>
			<polygon clip-path="url(#SVGID_16_)" fill="none" stroke="#000000" stroke-width="5" points="94.385,38.204 71.046,3.751 
				49.585,14.649 79.654,40.606 			"/>
		</g>
	</g>
	<g>
		<g>
			<defs>
				<rect id="SVGID_17_" x="0" width="372.236" height="151.504"/>
			</defs>
			<clipPath id="SVGID_18_">
				<use xlink:href="#SVGID_17_"  overflow="visible"/>
			</clipPath>
			<polygon clip-path="url(#SVGID_18_)" fill="none" stroke="#000000" stroke-width="5" points="108.731,57.249 146.118,27.252 
				114.41,25.392 71.046,2.751 94.385,35.452 			"/>
		</g>
	</g>
	<g>
		<g>
			<defs>
				<rect id="SVGID_19_" x="0" width="372.236" height="151.504"/>
			</defs>
			<clipPath id="SVGID_20_">
				<use xlink:href="#SVGID_19_"  overflow="visible"/>
			</clipPath>
			<path clip-path="url(#SVGID_20_)" d="M94.385,35.453L71.046,0L94.385,35.453z"/>
		</g>
	</g>
	<g>
		<g>
			<defs>
				<rect id="SVGID_21_" x="0" width="372.236" height="151.504"/>
			</defs>
			<clipPath id="SVGID_22_">
				<use xlink:href="#SVGID_21_"  overflow="visible"/>
			</clipPath>
			<polygon clip-path="url(#SVGID_22_)" fill="none" stroke="#000000" stroke-width="5" points="108.731,58.249 141.888,53.653 
				148.678,30.779 			"/>
		</g>
	</g>
	<g>
		<g>
			<defs>
				<rect id="SVGID_23_" x="0" width="372.236" height="151.504"/>
			</defs>
			<clipPath id="SVGID_24_">
				<use xlink:href="#SVGID_23_"  overflow="visible"/>
			</clipPath>
			<polygon clip-path="url(#SVGID_24_)" fill="none" stroke="#000000" stroke-width="5" points="79.655,40.607 78.915,67.762 
				108.73,57.249 94.385,35.454 			"/>
		</g>
	</g>
	<g>
		<g>
			<defs>
				<rect id="SVGID_25_" x="0" width="372.236" height="151.504"/>
			</defs>
			<clipPath id="SVGID_26_">
				<use xlink:href="#SVGID_25_"  overflow="visible"/>
			</clipPath>
			<path clip-path="url(#SVGID_26_)" d="M94.385,35.453L108.73,57.25L94.385,35.453z"/>
		</g>
	</g>
	<g>
		<g>
			<defs>
				<rect id="SVGID_27_" x="0" width="372.236" height="151.504"/>
			</defs>
			<clipPath id="SVGID_28_">
				<use xlink:href="#SVGID_27_"  overflow="visible"/>
			</clipPath>
			<polygon clip-path="url(#SVGID_28_)" fill="none" stroke="#000000" stroke-width="5" points="91.467,84.885 131.462,94.588 
				142.02,54.018 108.73,57.25 			"/>
		</g>
	</g>
	<g>
		<g>
			<defs>
				<rect id="SVGID_29_" x="0" width="372.236" height="151.504"/>
			</defs>
			<clipPath id="SVGID_30_">
				<use xlink:href="#SVGID_29_"  overflow="visible"/>
			</clipPath>
			<polygon clip-path="url(#SVGID_30_)" fill="none" stroke="#000000" stroke-width="5" points="69.806,76.971 90.467,84.887 
				108.731,57.249 78.915,67.763 			"/>
		</g>
	</g>
	<g>
		<g>
			<defs>
				<rect id="SVGID_31_" x="0" width="372.236" height="151.504"/>
			</defs>
			<clipPath id="SVGID_32_">
				<use xlink:href="#SVGID_31_"  overflow="visible"/>
			</clipPath>
			<polygon clip-path="url(#SVGID_32_)" fill="none" stroke="#000000" stroke-width="5" points="96.269,109.917 125.739,116.59 
				131.463,94.59 90.466,84.887 			"/>
		</g>
	</g>
	<g>
		<g>
			<defs>
				<rect id="SVGID_33_" x="0" width="372.236" height="151.504"/>
			</defs>
			<clipPath id="SVGID_34_">
				<use xlink:href="#SVGID_33_"  overflow="visible"/>
			</clipPath>
			<polygon clip-path="url(#SVGID_34_)" fill="none" stroke="#000000" stroke-width="5" points="69.806,76.971 48.328,98.682 
				96.268,109.917 90.467,84.887 			"/>
		</g>
	</g>
	<g>
		<g>
			<defs>
				<rect id="SVGID_35_" x="0" width="372.236" height="151.504"/>
			</defs>
			<clipPath id="SVGID_36_">
				<use xlink:href="#SVGID_35_"  overflow="visible"/>
			</clipPath>
			<polygon clip-path="url(#SVGID_36_)" fill="none" stroke="#000000" stroke-width="5" points="27.903,33.627 19.064,53.757 
				46.819,43.118 			"/>
		</g>
	</g>
	<g>
		<g>
			<defs>
				<rect id="SVGID_37_" x="0" width="372.236" height="151.504"/>
			</defs>
			<clipPath id="SVGID_38_">
				<use xlink:href="#SVGID_37_"  overflow="visible"/>
			</clipPath>
			<path clip-path="url(#SVGID_38_)" d="M46.819,43.117l-18.916-9.491L46.819,43.117z"/>
		</g>
	</g>
	<g>
		<g>
			<defs>
				<rect id="SVGID_39_" x="0" width="372.236" height="151.504"/>
			</defs>
			<clipPath id="SVGID_40_">
				<use xlink:href="#SVGID_39_"  overflow="visible"/>
			</clipPath>
			<polygon clip-path="url(#SVGID_40_)" fill="none" stroke="#000000" stroke-width="5" points="46.819,43.117 33.334,48.285 
				47.272,64.333 67.935,57.717 58.234,48.843 			"/>
		</g>
	</g>
	<g>
		<g>
			<defs>
				<rect id="SVGID_41_" x="0" width="372.236" height="151.504"/>
			</defs>
			<clipPath id="SVGID_42_">
				<use xlink:href="#SVGID_41_"  overflow="visible"/>
			</clipPath>
			<polygon clip-path="url(#SVGID_42_)" points="46.819,43.117 46.819,43.117 58.234,48.843 			"/>
		</g>
	</g>
	<g>
		<g>
			<defs>
				<rect id="SVGID_43_" x="0" width="372.236" height="151.504"/>
			</defs>
			<clipPath id="SVGID_44_">
				<use xlink:href="#SVGID_43_"  overflow="visible"/>
			</clipPath>
			<path clip-path="url(#SVGID_44_)" d="M58.233,48.843l9.701,8.874L58.233,48.843z"/>
		</g>
	</g>
	<g>
		<g>
			<defs>
				<rect id="SVGID_45_" x="0" width="372.236" height="151.504"/>
			</defs>
			<clipPath id="SVGID_46_">
				<use xlink:href="#SVGID_45_"  overflow="visible"/>
			</clipPath>
			<polygon clip-path="url(#SVGID_46_)" fill="none" stroke="#000000" stroke-width="5" points="78.915,67.762 67.935,57.718 
				47.271,64.334 52.537,74.256 48.328,97.684 69.806,76.971 			"/>
		</g>
	</g>
	<g>
		<g>
			<defs>
				<rect id="SVGID_47_" x="0" width="372.236" height="151.504"/>
			</defs>
			<clipPath id="SVGID_48_">
				<use xlink:href="#SVGID_47_"  overflow="visible"/>
			</clipPath>
			<path clip-path="url(#SVGID_48_)" d="M67.935,57.717l10.979,10.044L67.935,57.717z"/>
		</g>
	</g>
	<g>
		<g>
			<defs>
				<rect id="SVGID_49_" x="0" width="372.236" height="151.504"/>
			</defs>
			<clipPath id="SVGID_50_">
				<use xlink:href="#SVGID_49_"  overflow="visible"/>
			</clipPath>
			<polygon clip-path="url(#SVGID_50_)" points="69.806,76.971 69.806,76.971 78.915,67.763 			"/>
		</g>
	</g>
	<g>
		<g>
			<defs>
				<rect id="SVGID_51_" x="0" width="372.236" height="151.504"/>
			</defs>
			<clipPath id="SVGID_52_">
				<use xlink:href="#SVGID_51_"  overflow="visible"/>
			</clipPath>
			<path clip-path="url(#SVGID_52_)" d="M69.806,76.971L48.328,98.682L69.806,76.971z"/>
		</g>
	</g>
	<g>
		<g>
			<defs>
				<rect id="SVGID_53_" x="0" width="372.236" height="151.504"/>
			</defs>
			<clipPath id="SVGID_54_">
				<use xlink:href="#SVGID_53_"  overflow="visible"/>
			</clipPath>
			<polygon clip-path="url(#SVGID_54_)" fill="none" stroke="#000000" stroke-width="5" points="52.536,74.256 47.271,64.334 
				33.336,48.286 21.063,53.757 37.93,80.941 			"/>
		</g>
	</g>
	<g>
		<g>
			<defs>
				<rect id="SVGID_55_" x="0" width="372.236" height="151.504"/>
			</defs>
			<clipPath id="SVGID_56_">
				<use xlink:href="#SVGID_55_"  overflow="visible"/>
			</clipPath>
			<polygon clip-path="url(#SVGID_56_)" fill="none" stroke="#000000" stroke-width="5" points="37.929,80.944 19.064,53.756 
				10.283,76.034 16.374,89.814 			"/>
		</g>
	</g>
	<g>
		<g>
			<defs>
				<rect id="SVGID_57_" x="0" width="372.236" height="151.504"/>
			</defs>
			<clipPath id="SVGID_58_">
				<use xlink:href="#SVGID_57_"  overflow="visible"/>
			</clipPath>
			<polygon clip-path="url(#SVGID_58_)" fill="none" points="37.929,80.944 16.374,90.814 48.329,98.686 52.535,74.257 			"/>
		</g>
	</g>
	<g>
		<g>
			<defs>
				<rect id="SVGID_59_" x="0" width="372.236" height="151.504"/>
			</defs>
			<clipPath id="SVGID_60_">
				<use xlink:href="#SVGID_59_"  overflow="visible"/>
			</clipPath>
			<path clip-path="url(#SVGID_60_)" d="M37.929,80.944l14.604-6.688L37.929,80.944z"/>
		</g>
	</g>
	<g>
		<g>
			<defs>
				<rect id="SVGID_61_" x="0" width="372.236" height="151.504"/>
			</defs>
			<clipPath id="SVGID_62_">
				<use xlink:href="#SVGID_61_"  overflow="visible"/>
			</clipPath>
			<path clip-path="url(#SVGID_62_)" d="M16.375,90.813l21.558-9.871L16.375,90.813z"/>
		</g>
	</g>
	<g>
		<g>
			<defs>
				<rect id="SVGID_63_" x="0" width="372.236" height="151.504"/>
			</defs>
			<clipPath id="SVGID_64_">
				<use xlink:href="#SVGID_63_"  overflow="visible"/>
			</clipPath>
			<polygon clip-path="url(#SVGID_64_)" fill="none" stroke="#000000" stroke-width="5" points="10.282,76.033 3,97.17 
				23.806,117.372 48.328,98.684 16.375,90.813 			"/>
		</g>
	</g>
	<g>
		<g>
			<defs>
				<rect id="SVGID_65_" x="0" width="372.236" height="151.504"/>
			</defs>
			<clipPath id="SVGID_66_">
				<use xlink:href="#SVGID_65_"  overflow="visible"/>
			</clipPath>
			<polygon clip-path="url(#SVGID_66_)" points="200.803,139.241 203.454,140.939 210.238,130.105 217.05,140.938 219.704,139.295 
				210.238,124.189 			"/>
		</g>
	</g>
	<g>
		<g>
			<defs>
				<rect id="SVGID_67_" x="0" width="372.236" height="151.504"/>
			</defs>
			<clipPath id="SVGID_68_">
				<use xlink:href="#SVGID_67_"  overflow="visible"/>
			</clipPath>
			<rect x="200.874" y="144.357" clip-path="url(#SVGID_68_)" width="18.729" height="2.89"/>
		</g>
	</g>
	<g>
		<g>
			<defs>
				<rect id="SVGID_69_" x="0" width="372.236" height="151.504"/>
			</defs>
			<clipPath id="SVGID_70_">
				<use xlink:href="#SVGID_69_"  overflow="visible"/>
			</clipPath>
			<path clip-path="url(#SVGID_70_)" d="M223.086,140.866h12.439v-15.574h-12.439V140.866z M232.13,137.975h-5.647v-9.797h5.647
				V137.975z"/>
		</g>
	</g>
	<g>
		<g>
			<defs>
				<rect id="SVGID_71_" x="0" width="372.236" height="151.504"/>
			</defs>
			<clipPath id="SVGID_72_">
				<use xlink:href="#SVGID_71_"  overflow="visible"/>
			</clipPath>
			<polygon clip-path="url(#SVGID_72_)" points="241.361,125.292 237.968,125.292 237.968,148.816 241.361,148.816 241.361,134.78 
				245.591,134.78 245.591,131.891 241.361,131.891 			"/>
		</g>
	</g>
	<g>
		<g>
			<defs>
				<rect id="SVGID_73_" x="0" width="372.236" height="151.504"/>
			</defs>
			<clipPath id="SVGID_74_">
				<use xlink:href="#SVGID_73_"  overflow="visible"/>
			</clipPath>
			<rect x="246.63" y="144.385" clip-path="url(#SVGID_74_)" width="17.722" height="2.887"/>
		</g>
	</g>
	<g>
		<g>
			<defs>
				<rect id="SVGID_75_" x="0" width="372.236" height="151.504"/>
			</defs>
			<clipPath id="SVGID_76_">
				<use xlink:href="#SVGID_75_"  overflow="visible"/>
			</clipPath>
			<polygon clip-path="url(#SVGID_76_)" points="263.342,136.938 251.036,136.938 251.036,133.844 263.342,133.844 263.342,130.956 
				251.036,130.956 251.036,128.125 263.342,128.125 263.342,125.239 247.642,125.239 247.642,139.829 263.342,139.829 			"/>
		</g>
	</g>
	<g>
		<g>
			<defs>
				<rect id="SVGID_77_" x="0" width="372.236" height="151.504"/>
			</defs>
			<clipPath id="SVGID_78_">
				<use xlink:href="#SVGID_77_"  overflow="visible"/>
			</clipPath>
			<path clip-path="url(#SVGID_78_)" d="M279.714,139.829h6.618v-2.892h-3.005v-8.813h3.005v-2.887h-16.707v2.887h3.005v8.813
				h-3.005v2.892h6.668v4.557h-7.68v2.888h18.729v-2.888h-7.631L279.714,139.829L279.714,139.829z M279.931,136.938h-3.905v-8.813
				h3.905V136.938z"/>
		</g>
	</g>
	<g>
		<g>
			<defs>
				<rect id="SVGID_79_" x="0" width="372.236" height="151.504"/>
			</defs>
			<clipPath id="SVGID_80_">
				<use xlink:href="#SVGID_79_"  overflow="visible"/>
			</clipPath>
			<polygon clip-path="url(#SVGID_80_)" points="321.599,139.083 327.712,139.083 327.712,136.167 315.408,136.167 315.408,128.125 
				327.712,128.125 327.712,125.239 312.014,125.239 312.014,139.083 318.177,139.083 318.177,144.385 311.255,144.385 
				311.255,147.273 328.469,147.273 328.469,144.385 321.599,144.385 			"/>
		</g>
	</g>
	<g>
		<g>
			<defs>
				<rect id="SVGID_81_" x="0" width="372.236" height="151.504"/>
			</defs>
			<clipPath id="SVGID_82_">
				<use xlink:href="#SVGID_81_"  overflow="visible"/>
			</clipPath>
			<rect x="347.497" y="125.264" clip-path="url(#SVGID_82_)" width="3.396" height="23.525"/>
		</g>
	</g>
	<g>
		<g>
			<defs>
				<rect id="SVGID_83_" x="0" width="372.236" height="151.504"/>
			</defs>
			<clipPath id="SVGID_84_">
				<use xlink:href="#SVGID_83_"  overflow="visible"/>
			</clipPath>
			<polygon clip-path="url(#SVGID_84_)" points="330.451,139.598 330.362,139.77 333.157,141.225 338.38,131.094 343.599,141.196 
				346.425,139.799 338.38,124.186 			"/>
		</g>
	</g>
	<g>
		<g>
			<defs>
				<rect id="SVGID_85_" x="0" width="372.236" height="151.504"/>
			</defs>
			<clipPath id="SVGID_86_">
				<use xlink:href="#SVGID_85_"  overflow="visible"/>
			</clipPath>
			<path clip-path="url(#SVGID_86_)" d="M304.589,135.051h-1.521c1.794-1.109,3.002-3.076,3.002-5.336
				c0-3.469-2.82-6.289-6.288-6.289c-3.467,0-6.289,2.82-6.289,6.289c0,2.26,1.209,4.227,3.002,5.336h-1.595v3.23h-4.771v2.893
				h5.797c-1.242,1.082-2.046,2.656-2.046,4.43c0,3.254,2.647,5.9,5.902,5.9c3.254,0,5.9-2.646,5.9-5.9
				c0-1.772-0.804-3.348-2.044-4.43h5.734v-2.893h-4.781L304.589,135.051L304.589,135.051z M298.291,138.282v-2.476
				c0.479,0.117,0.975,0.195,1.488,0.195c0.487,0,0.959-0.066,1.416-0.176v2.455L298.291,138.282L298.291,138.282z M299.779,132.838
				c-1.723,0-3.123-1.4-3.123-3.123s1.4-3.123,3.123-3.123c1.722,0,3.122,1.4,3.122,3.123S301.501,132.838,299.779,132.838
				 M302.691,145.604c0,1.605-1.307,2.912-2.912,2.912s-2.913-1.307-2.913-2.912c0-1.606,1.308-2.912,2.913-2.912
				C301.385,142.691,302.691,143.997,302.691,145.604"/>
		</g>
	</g>
</g>
</svg>
